  <svg
    xmlns="http://www.w3.org/2000/svg"
    class="icon icon-tabler icon-tabler-qrcode"
    width="1000"
    height="1000"
    viewBox="0 0 24 24"
    stroke-width="2"
    stroke="currentColor"
    fill="none"
    stroke-linecap="round"
    stroke-linejoin="round"
  >
    <path stroke="none" d="M0 0h24v24H0z" fill="#fff"></path>
    <rect
      x="4"
      y="4"
      width="6"
      height="6"
      rx="1"
      stroke="#e5e7eb"
    ></rect>
    <line x1="7" y1="17" x2="7" y2="17.01" stroke="#e5e7eb"></line>
    <rect
      x="14"
      y="4"
      width="6"
      height="6"
      rx="1"
      stroke="#e5e7eb"
    ></rect>
    <line x1="7" y1="7" x2="7" y2="7.01" stroke="#e5e7eb"></line>
    <rect
      x="4"
      y="14"
      width="6"
      height="6"
      rx="1"
      stroke="#e5e7eb"
    ></rect>
    <line x1="17" y1="7" x2="17" y2="7.01" stroke="#e5e7eb"></line>
    <line x1="14" y1="14" x2="17" y2="14" stroke="#e5e7eb"></line>
    <line x1="20" y1="14" x2="20" y2="14.01" stroke="#e5e7eb"></line>
    <line x1="14" y1="14" x2="14" y2="17" stroke="#e5e7eb"></line>
    <line x1="14" y1="20" x2="17" y2="20" stroke="#e5e7eb"></line>
    <line x1="17" y1="17" x2="20" y2="17" stroke="#e5e7eb"></line>
    <line x1="20" y1="17" x2="20" y2="20" stroke="#e5e7eb"></line>
    <line x1="12" y1="8" x2="12.01" y2="8" stroke="#000000"></line>
    <rect
      x="4"
      y="4"
      width="16"
      height="16"
      rx="2"
      stroke="#000000"
    ></rect>
    <polyline
      points="11 12 12 12 12 16 13 16"
      stroke="#000000"
    ></polyline>
  </svg>