<?xml version="1.0" standalone="no"?>
<!DOCTYPE svg PUBLIC "-//W3C//DTD SVG 20010904//EN"
 "http://www.w3.org/TR/2001/REC-SVG-20010904/DTD/svg10.dtd">
<svg version="1.0" xmlns="http://www.w3.org/2000/svg"
 width="700.000000pt" height="700.000000pt" viewBox="0 0 700.000000 700.000000"
 preserveAspectRatio="xMidYMid meet">
<metadata>
Created by potrace 1.14, written by Peter Selinger 2001-2017
</metadata>
<g transform="translate(0.000000,700.000000) scale(0.100000,-0.100000)"
fill="#000000" stroke="none">
<path d="M2105 6119 c-564 -6 -546 -4 -683 -57 -101 -39 -195 -103 -288 -196
-130 -130 -202 -261 -241 -435 -15 -69 -16 -238 -16 -1931 0 -1693 1 -1862 16
-1931 39 -174 111 -305 241 -435 132 -131 262 -203 441 -242 74 -16 212 -17
1930 -17 l1850 0 88 22 c185 48 316 122 439 251 117 123 190 260 224 421 13
67 15 291 17 1931 1 2039 5 1910 -58 2070 -84 216 -279 410 -493 494 -149 59
-87 56 -1572 59 -751 1 -1603 -1 -1895 -4z m3271 -606 c63 -34 97 -66 129
-125 l30 -53 0 -1835 0 -1835 -22 -41 c-34 -63 -66 -97 -125 -129 l-53 -30
-1835 0 -1835 0 -53 30 c-59 32 -91 66 -125 129 l-22 41 -3 1814 c-1 1168 1
1826 8 1850 15 56 64 127 109 157 86 57 -35 53 1936 51 l1820 -2 41 -22z"/>
<path d="M3435 4951 c-92 -23 -181 -105 -211 -193 -44 -133 21 -288 149 -355
49 -25 176 -30 234 -8 64 25 136 94 163 156 93 217 -107 455 -335 400z"/>
<path d="M3119 3777 c-55 -21 -107 -55 -134 -91 -88 -115 -87 -257 1 -373 34
-44 118 -91 177 -99 l47 -7 0 -462 c0 -519 0 -518 72 -600 22 -25 64 -58 92
-73 49 -26 57 -27 248 -30 157 -3 208 -1 251 12 207 60 279 324 129 479 -44
46 -94 73 -161 88 l-50 11 -3 476 c-3 470 -3 478 -25 518 -34 63 -66 97 -125
129 l-53 30 -215 2 c-159 2 -224 -1 -251 -10z"/>
</g>
</svg>
